<svg xmlns="http://www.w3.org/2000/svg" width="100" height="100" id="smugmug"><path d="M41.396 11.75c0 3.731-3.896 6.752-8.695 6.752-4.805 0-8.703-3.021-8.703-6.752C23.997 8.023 27.896 5 32.7 5c4.8 0 8.696 3.023 8.696 6.75M71.841 5c-4.798 0-8.698 3.023-8.698 6.75 0 3.731 3.899 6.752 8.698 6.752 4.806 0 8.701-3.021 8.701-6.752 0-3.727-3.896-6.75-8.701-6.75M95 39.316C95 45.962 80.128 95 41.892 95 3.658 95-.596 59.051 10.028 36.891c2.125-4.436 4.249-4.887 4.249-4.887h74.348S95 32.662 95 39.316m-9.014 1.689H17.798c-4.502 9-6.341 23.435-.309 33.64 5.573 9.406 16.344 11.371 24.403 11.371 28.993 0 41.937-36.011 44.094-45.011"></path></svg>