<svg xmlns="http://www.w3.org/2000/svg" viewBox="0 0 40 40" id="squarespace"><path d="m10.48 19.28 8.85-9a5.09 5.09 0 0 1 7.26 0l.69.7-1.38 1.43-.69-.69a3.14 3.14 0 0 0-4.5 0l-8.85 9Zm13.22-4.59-1.39-1.39-8.89 8.94a3.19 3.19 0 0 1-4.53 0 3.25 3.25 0 0 1 0-4.55L16.56 10l-1.38-1.42-7.67 7.71a5.22 5.22 0 0 0 0 7.34 5.14 5.14 0 0 0 7.3 0Zm8.79 1.68a5.14 5.14 0 0 0-7.3 0l-8.89 8.94 1.39 1.39 8.89-8.94a3.19 3.19 0 0 1 4.53 0A3.23 3.23 0 0 1 32 20a3.19 3.19 0 0 1-.93 2.27L23.44 30l1.38 1.39 7.67-7.71a5.22 5.22 0 0 0 0-7.34m-4.35 3-8.85 9a3.15 3.15 0 0 1-4.5 0l-.69-.69L12.72 29l.69.7a5.09 5.09 0 0 0 7.26 0l8.85-9Z"></path></svg>